v -0.122112 0.344367 -0.114066
v -0.141408 0.302006 -0.097971
v -0.143489 0.364524 -0.111942
v -0.143455 0.332569 -0.091111
v -0.159902 0.348519 -0.093699
v -0.122755 0.289815 -0.009728
v -0.038541 0.136902 -0.077873
v -0.060104 0.175375 -0.075482
v 0.004446 0.157014 -0.072138
v -0.151342 0.287677 -0.014965
v 0.029565 0.188641 -0.055739
v 0.043854 0.101890 -0.051499
v -0.048208 0.094045 -0.057966
v -0.146464 0.312070 0.003132
v -0.073167 0.176154 -0.047422
v 0.029827 0.205405 -0.042931
v 0.027316 0.070076 -0.042286
v -0.080435 0.068474 -0.062869
v -0.084098 0.067957 -0.035875
v -0.094522 0.092324 -0.020832
v 0.000116 0.228410 -0.040887
v 0.074975 0.191364 -0.029662
v -0.064215 0.224570 -0.036450
v -0.028478 0.322038 -0.017226
v -0.019397 0.342297 -0.049878
v -0.028629 0.372852 -0.051223
v -0.064972 0.105525 -0.018541
v -0.113078 0.202617 -0.041759
v -0.128142 0.155582 -0.039731
v 0.018653 0.074458 -0.024341
v -0.102015 0.133758 -0.026037
v -0.120440 0.308214 -0.001582
v -0.075310 0.077511 -0.031360
v -0.103643 0.257707 -0.011186
v 0.085222 0.127084 -0.009946
v -0.001260 0.258728 -0.009010
v -0.150350 0.225956 -0.017192
v -0.169218 0.158800 -0.005486
v 0.064979 0.237184 -0.000242
v -0.104703 0.309275 0.025637
v -0.151068 0.068313 -0.001295
v -0.121419 0.114854 0.005203
v -0.098083 0.284145 0.006700
v 0.059105 0.069819 0.006002
v -0.163805 0.251891 -0.012723
v -0.056587 0.248630 -0.002949
v -0.057090 0.073345 0.028189
v -0.055957 0.360720 -0.012056
v 0.097518 0.109044 -0.014434
v -0.125129 0.096634 0.009793
v -0.175850 0.214790 0.016910
v 0.097442 0.157013 0.031064
v -0.087048 0.259883 0.028438
v -0.007813 0.073445 0.027669
v -0.191055 0.240385 0.025186
v 0.121072 0.143093 0.019951
v 0.120245 0.111245 0.013165
v -0.183260 0.304673 0.034592
v -0.175086 0.160859 0.041279
v -0.130187 0.067364 0.042826
v 0.012137 0.266231 0.042972
v -0.182493 0.273402 0.038969
v -0.056264 0.246628 0.050094
v 0.100293 0.094058 0.057817
v -0.096710 0.105591 0.032234
v -0.118059 0.309959 0.065355
v 0.045395 0.071461 0.055755
v 0.109211 0.138181 0.054010
v -0.070281 0.070261 0.085964
v -0.145526 0.139035 0.063240
v 0.059561 0.232266 0.064672
v -0.111941 0.264309 0.072129
v -0.156892 0.215664 0.068093
v -0.126958 0.094582 0.076251
v -0.012732 0.238371 0.080322
v -0.103591 0.102287 0.064932
v -0.094686 0.134100 0.079605
v -0.186282 0.232254 0.087031
v 0.038667 0.247130 0.063872
v 0.064863 0.179168 0.086771
v -0.112015 0.229067 0.071417
v 0.013406 0.079256 0.067582
v -0.140653 0.170684 0.089299
v 0.077600 0.115224 0.065815
v -0.117607 0.070739 0.096242
v 0.033834 0.075612 0.085429
v -0.066729 0.200164 0.085366
v -0.156864 0.270822 0.108448
v -0.078063 0.095580 0.078619
v -0.053948 0.110460 0.072164
v -0.063158 0.179262 0.087681
v -0.137178 0.231142 0.107614
v -0.103615 0.182064 0.092108
v 0.039278 0.116282 0.095836
v -0.046007 0.164102 0.112600
v 0.029211 0.201028 0.094346
v -0.058010 0.076774 0.111865
v -0.035210 0.101591 0.097611
v 0.008238 0.109950 0.110396
v -0.018457 0.192064 0.111299
v 0.020268 0.168967 0.111998
v -0.011212 0.141586 0.116906
vn -0.297600 -0.217600 -0.929600
vn -0.995900 -0.049900 -0.074900
vn -0.369900 -0.507600 -0.778100
vn 0.844100 -0.477300 -0.244400
vn 0.081900 0.107500 -0.990800
vn -0.991400 -0.038300 -0.125300
vn 0.149800 0.358800 -0.921300
vn 0.220800 -0.199600 -0.954700
vn 0.100100 -0.437600 -0.893600
vn -0.403500 0.836500 0.370900
vn -0.538700 -0.251900 -0.804000
vn -0.264100 0.952900 -0.149400
vn 0.188100 -0.049000 -0.980900
vn 0.085100 0.604100 -0.792400
vn 0.508800 0.041800 -0.859900
vn 0.018000 -0.999700 -0.016700
vn -0.466400 0.693200 -0.549500
vn -0.887200 -0.217400 -0.407000
vn 0.093600 -0.321500 -0.942300
vn 0.013400 0.105600 -0.994300
vn 0.495800 0.039300 -0.867500
vn -0.080800 0.234500 -0.968800
vn 0.865900 0.279900 0.414500
vn 0.102300 -0.982200 -0.157300
vn -0.581100 -0.673300 -0.457200
vn -0.916900 -0.237500 -0.320700
vn -0.139300 0.001900 -0.990300
vn 0.032900 -0.967100 0.252100
vn 0.007300 0.219700 -0.975500
vn 0.057300 -0.480400 -0.875100
vn 0.388800 0.555500 -0.735000
vn 0.665900 0.672200 0.323600
vn -0.382700 -0.155700 -0.910600
vn -0.081100 -0.363900 0.927900
vn -0.130600 0.498100 -0.857200
vn 0.732600 -0.090100 -0.674700
vn -0.090400 0.719700 -0.688400
vn -0.938300 -0.319100 -0.133400
vn -0.348900 0.849500 -0.395700
vn -0.492600 0.120600 -0.861900
vn 0.389700 0.567700 -0.725100
vn -0.234300 0.502100 -0.832500
vn -0.109800 -0.387100 -0.915500
vn -0.637600 0.045100 -0.769000
vn 0.122100 -0.102000 -0.987300
vn 0.385800 0.556600 -0.735800
vn 0.350200 0.521600 0.778000
vn -0.431200 0.333200 -0.838500
vn 0.734800 0.599200 0.317800
vn -0.285700 -0.730900 -0.619800
vn -0.501900 -0.676900 -0.538400
vn -0.230000 -0.500700 -0.834500
vn -0.983500 0.074600 0.164600
vn -0.211700 -0.968100 0.134200
vn -0.261500 0.030600 -0.964700
vn 0.102300 0.037500 -0.994000
vn 0.751200 -0.471300 -0.462100
vn 0.251600 0.758100 -0.601700
vn 0.717100 -0.510200 -0.474800
vn 0.309100 -0.844200 -0.437800
vn -0.027800 -0.997700 -0.061300
vn 0.792600 -0.447300 0.414400
vn 0.167900 0.144200 -0.975200
vn 0.311800 0.695200 -0.647700
vn -0.419700 -0.060800 -0.905600
vn -0.480000 0.664100 -0.573200
vn -0.727300 -0.268400 -0.631700
vn 0.945900 0.052600 -0.320200
vn -0.766100 -0.214700 -0.605800
vn 0.572000 0.373700 -0.730200
vn 0.768800 -0.577000 -0.275600
vn -0.637400 0.739800 -0.215600
vn 0.211300 0.967100 -0.141600
vn 0.575900 0.269300 -0.771900
vn -0.072100 -0.995800 -0.056100
vn -0.814000 0.130000 -0.566100
vn -0.572200 0.762800 0.301100
vn -0.208000 0.816300 -0.538900
vn -0.820300 0.253500 -0.512700
vn -0.709200 -0.033000 -0.704200
vn -0.749800 -0.246900 -0.613900
vn 0.934800 0.312500 -0.169100
vn 0.762200 0.115900 -0.636900
vn -0.604100 0.549200 -0.577400
vn 0.918800 0.069700 -0.388600
vn 0.001800 -0.999800 -0.018500
vn -0.102600 0.413500 -0.904700
vn 0.425100 0.480500 -0.767000
vn 0.495500 -0.435700 0.751400
vn 0.547100 -0.739800 -0.391500
vn -0.669700 -0.740900 -0.051400
vn -0.013200 -0.999800 -0.015200
vn 0.327800 0.919400 -0.217200
vn -0.188600 0.977700 -0.092500
vn 0.090500 -0.994900 0.045500
vn -0.841200 0.379100 -0.385500
vn -0.271600 0.961600 0.037900
vn 0.375800 0.926100 0.032700
vn 0.564900 -0.822600 -0.064200
vn 0.166500 0.772200 -0.613200
vn -0.851300 -0.093200 -0.516300
vn -0.647500 0.307500 0.697300
vn -0.023800 0.999400 -0.025200
vn -0.047700 -0.998700 0.019800
vn 0.586900 0.747100 0.312100
vn -0.587100 0.648400 0.484700
vn 0.074300 -0.996600 -0.036200
vn -0.623700 -0.778900 0.065500
vn -0.753000 0.545500 0.368100
vn -0.990200 -0.068800 -0.121200
vn -0.122300 0.988500 0.089400
vn 0.373000 -0.918200 0.133100
vn 0.545500 0.831000 0.108500
vn 0.141000 0.989500 -0.030800
vn 0.922300 -0.103300 0.372400
vn -0.490000 -0.858000 0.153900
vn 0.906400 0.408700 0.106600
vn 0.704700 0.623600 0.338300
vn -0.775800 -0.556800 0.296900
vn -0.746300 0.549600 -0.375400
vn 0.938700 -0.163600 0.303300
vn 0.947900 0.009600 0.318600
vn -0.929100 0.141300 0.341700
vn -0.189300 0.843300 0.503000
vn -0.298300 0.953900 0.033600
vn -0.243600 -0.826300 0.507700
vn -0.972400 0.209400 0.102600
vn 0.001500 -0.998600 -0.053000
vn 0.579400 0.815000 0.009300
vn 0.953500 0.165200 0.252000
vn -0.928500 0.334400 -0.161600
vn 0.875200 0.257800 0.409300
vn 0.868300 -0.011800 0.495900
vn -0.152800 -0.963100 0.221500
vn -0.810900 -0.017000 0.584900
vn -0.241600 0.685700 0.686600
vn 0.864500 0.007500 0.502600
vn 0.078400 -0.277800 0.957400
vn -0.043200 0.823600 0.565500
vn 0.067500 0.777700 0.625000
vn -0.715200 -0.375400 0.589600
vn 0.342200 0.011900 0.939500
vn -0.524700 -0.848300 -0.071000
vn -0.300300 -0.578300 0.758500
vn 0.003400 -0.998100 0.062200
vn -0.992800 -0.040100 -0.112600
vn 0.709500 -0.605100 0.361100
vn 0.124000 0.582100 0.803600
vn -0.294800 0.824400 0.483200
vn 0.123500 -0.989200 0.078300
vn -0.811100 0.364900 0.457100
vn -0.368700 0.613300 0.698500
vn 0.226300 0.366700 0.902400
vn 0.347100 -0.161900 0.923700
vn -0.506900 -0.240000 0.827900
vn -0.955500 -0.176700 0.236200
vn -0.177200 0.366700 0.913300
vn -0.237200 0.381800 -0.893300
vn 0.262000 -0.935800 0.235800
vn -0.028000 0.398500 0.916700
vn 0.633500 0.196000 0.748500
vn 0.588500 -0.273500 0.760800
vn 0.608700 -0.135000 0.781800
vn 0.051500 -0.986100 0.158000
vn -0.205900 -0.871900 0.444200
vn -0.041900 0.864100 0.501700
vn -0.182400 0.368700 0.911500
vn -0.133900 -0.083100 0.987500
vn -0.315700 0.051000 0.947500
vn 0.268500 -0.195900 0.943200
vn 0.203500 0.330000 0.921800
vn -0.860900 -0.218800 0.459400
vn 0.820700 -0.013300 0.571300
vn 0.411500 0.384900 0.826100
vn 0.003900 -0.251600 0.967800
vn 0.220800 0.550400 0.805200
vn -0.092400 0.257500 0.961900
vn -0.424100 0.711500 0.560300
vn 0.626200 0.295500 0.721500
vn -0.297800 0.742700 0.599700
vn -0.050400 0.630000 0.775000
vn 0.453800 -0.277400 0.846800
vn -0.818300 -0.263800 0.510600
vn 0.051200 -0.974000 0.220700
vn -0.880800 -0.139500 0.452400
vn -0.471000 0.017200 0.882000
vn -0.382100 -0.208500 0.900300
vn -0.043000 0.928100 0.369900
vn -0.103400 -0.634200 0.766200
vn 0.504800 -0.081500 0.859400
vn 0.268700 0.282200 0.921000
vn 0.440900 -0.114000 0.890300
vn 0.397500 0.355000 0.846200
vn -0.210400 -0.319500 0.923900
vn 0.233600 0.418200 0.877800
vn -0.509500 0.533400 0.675200
vn -0.288500 -0.270100 0.918600
vn 0.212700 -0.069800 0.974600
vn -0.056800 0.102200 0.993100
vn 0.052300 0.117700 0.991700
f 1//1 2//1 3//1
f 4//2 3//2 2//2
f 5//3 3//3 4//3
f 1//4 6//4 2//4
f 7//5 8//5 9//5
f 2//6 10//6 4//6
f 9//7 8//7 11//7
f 9//8 12//8 7//8
f 12//9 13//9 7//9
f 5//10 14//10 3//10
f 13//11 8//11 7//11
f 8//12 15//12 16//12
f 13//13 17//13 18//13
f 8//14 16//14 11//14
f 12//15 9//15 11//15
f 18//16 17//16 19//16
f 20//17 13//17 18//17
f 15//18 8//18 13//18
f 12//19 17//19 13//19
f 21//20 16//20 15//20
f 11//21 22//21 12//21
f 21//22 15//22 23//22
f 24//23 25//23 26//23
f 10//24 2//24 6//24
f 4//25 10//25 5//25
f 15//26 13//26 27//26
f 28//27 15//27 29//27
f 17//28 30//28 19//28
f 23//29 15//29 28//29
f 15//30 31//30 29//30
f 11//31 16//31 22//31
f 1//32 3//32 14//32
f 26//33 25//33 32//33
f 33//34 19//34 30//34
f 34//35 23//35 28//35
f 35//36 12//36 22//36
f 23//37 36//37 21//37
f 19//38 20//38 18//38
f 13//39 20//39 27//39
f 28//40 29//40 37//40
f 21//41 22//41 16//41
f 28//42 37//42 34//42
f 27//43 31//43 15//43
f 29//44 38//44 37//44
f 27//45 20//45 31//45
f 39//46 22//46 21//46
f 40//47 24//47 26//47
f 41//48 20//48 19//48
f 6//49 1//49 14//49
f 31//50 42//50 29//50
f 42//51 38//51 29//51
f 25//52 43//52 32//52
f 10//53 14//53 5//53
f 30//54 17//54 44//54
f 37//55 45//55 10//55
f 37//56 10//56 34//56
f 44//57 12//57 35//57
f 34//58 46//58 23//58
f 17//59 12//59 44//59
f 24//60 43//60 25//60
f 33//61 30//61 47//61
f 40//62 26//62 48//62
f 6//63 34//63 10//63
f 21//64 36//64 39//64
f 49//65 44//65 35//65
f 41//66 50//66 20//66
f 37//67 51//67 45//67
f 35//68 22//68 52//68
f 31//69 20//69 42//69
f 6//70 43//70 34//70
f 33//71 47//71 19//71
f 48//72 26//72 32//72
f 34//73 53//73 46//73
f 32//74 43//74 6//74
f 30//75 44//75 54//75
f 38//76 51//76 37//76
f 32//77 40//77 48//77
f 23//78 46//78 36//78
f 45//79 55//79 10//79
f 20//80 50//80 42//80
f 45//81 51//81 55//81
f 39//82 52//82 22//82
f 49//83 56//83 57//83
f 10//84 58//84 14//84
f 43//85 53//85 34//85
f 30//86 54//86 47//86
f 6//87 14//87 32//87
f 49//88 35//88 56//88
f 40//89 43//89 24//89
f 44//90 49//90 57//90
f 59//91 38//91 42//91
f 41//92 19//92 60//92
f 39//93 36//93 61//93
f 36//94 46//94 61//94
f 19//95 47//95 60//95
f 55//96 62//96 10//96
f 63//97 61//97 46//97
f 63//98 46//98 53//98
f 44//99 57//99 64//99
f 56//100 35//100 52//100
f 58//101 10//101 62//101
f 42//102 50//102 65//102
f 66//103 40//103 32//103
f 67//104 54//104 44//104
f 56//105 52//105 68//105
f 50//106 60//106 65//106
f 60//107 47//107 69//107
f 59//108 42//108 70//108
f 41//109 60//109 50//109
f 51//110 38//110 59//110
f 66//111 14//111 58//111
f 44//112 64//112 67//112
f 71//113 39//113 61//113
f 32//114 14//114 66//114
f 56//115 64//115 57//115
f 70//116 42//116 65//116
f 39//117 71//117 52//117
f 53//118 43//118 72//118
f 55//119 51//119 73//119
f 60//120 74//120 65//120
f 64//121 56//121 68//121
f 66//122 43//122 40//122
f 51//123 59//123 73//123
f 75//124 61//124 63//124
f 74//125 76//125 65//125
f 65//126 77//126 70//126
f 55//127 78//127 62//127
f 47//128 54//128 69//128
f 71//129 61//129 79//129
f 66//130 72//130 43//130
f 77//131 65//131 76//131
f 80//132 52//132 71//132
f 72//133 81//133 53//133
f 54//134 67//134 82//134
f 59//135 83//135 73//135
f 84//136 68//136 52//136
f 84//137 52//137 80//137
f 64//138 84//138 67//138
f 81//139 63//139 53//139
f 75//140 79//140 61//140
f 59//141 70//141 83//141
f 64//142 68//142 84//142
f 55//143 73//143 78//143
f 70//144 77//144 83//144
f 60//145 69//145 85//145
f 58//146 62//146 78//146
f 84//147 86//147 67//147
f 81//148 87//148 63//148
f 88//149 66//149 58//149
f 54//150 82//150 69//150
f 58//151 78//151 88//151
f 87//152 75//152 63//152
f 75//153 71//153 79//153
f 89//154 90//154 91//154
f 77//155 76//155 89//155
f 60//156 85//156 74//156
f 83//157 81//157 73//157
f 82//158 67//158 69//158
f 73//159 81//159 92//159
f 93//160 87//160 81//160
f 66//161 88//161 72//161
f 94//162 86//162 84//162
f 94//163 84//163 80//163
f 69//164 67//164 86//164
f 78//165 73//165 92//165
f 74//166 89//166 76//166
f 83//167 93//167 81//167
f 89//168 91//168 77//168
f 77//169 91//169 87//169
f 93//170 77//170 87//170
f 69//171 89//171 85//171
f 91//172 90//172 95//172
f 92//173 81//173 72//173
f 96//174 80//174 71//174
f 83//175 77//175 93//175
f 71//176 75//176 96//176
f 87//177 96//177 75//177
f 90//178 97//178 98//178
f 88//179 92//179 72//179
f 89//180 97//180 90//180
f 74//181 85//181 89//181
f 99//182 86//182 94//182
f 95//183 90//183 98//183
f 69//184 86//184 97//184
f 69//185 97//185 89//185
f 87//186 91//186 100//186
f 78//187 92//187 88//187
f 100//188 96//188 87//188
f 99//189 98//189 86//189
f 101//190 94//190 80//190
f 98//191 97//191 86//191
f 101//192 99//192 94//192
f 101//193 80//193 96//193
f 102//194 98//194 99//194
f 96//195 100//195 101//195
f 91//196 95//196 100//196
f 95//197 98//197 102//197
f 102//198 99//198 101//198
f 95//199 102//199 100//199
f 100//200 102//200 101//200
